<?xml version="1.0" encoding="UTF-8"?>
<svg xmlns="http://www.w3.org/2000/svg" xmlns:xlink="http://www.w3.org/1999/xlink" viewBox="0 0 48 48" width="48px" height="48px">
<g id="surface8501052">
<path style=" stroke:none;fill-rule:nonzero;fill:rgb(20.392157%,59.607846%,85.882354%);fill-opacity:1;" d="M 13.441406 3.832031 C 8.148438 3.832031 3.839844 8.140625 3.839844 13.429688 L 3.839844 34.550781 C 3.839844 39.839844 8.148438 44.152344 13.441406 44.152344 L 34.558594 44.152344 C 39.851562 44.152344 44.160156 39.839844 44.160156 34.550781 L 44.160156 13.429688 C 44.160156 8.140625 39.851562 3.832031 34.558594 3.832031 Z M 13.441406 5.75 L 34.558594 5.75 C 38.8125 5.75 42.238281 9.175781 42.238281 13.429688 L 42.238281 34.550781 C 42.238281 38.804688 38.8125 42.230469 34.558594 42.230469 L 13.441406 42.230469 C 9.1875 42.230469 5.761719 38.804688 5.761719 34.550781 L 5.761719 13.429688 C 5.761719 9.175781 9.1875 5.75 13.441406 5.75 Z M 17.328125 10.59375 C 15.363281 10.507812 13.875 11.253906 12.9375 12.152344 C 12.46875 12.601562 12.128906 13.082031 11.898438 13.527344 C 11.664062 13.976562 11.519531 14.34375 11.519531 14.824219 C 11.519531 14.78125 11.507812 15.007812 11.5 15.269531 C 11.496094 15.527344 11.496094 15.878906 11.519531 16.304688 C 11.566406 17.152344 11.710938 18.304688 12.09375 19.664062 C 12.859375 22.390625 14.578125 25.960938 18.308594 29.691406 C 22.039062 33.421875 25.609375 35.140625 28.335938 35.90625 C 29.695312 36.289062 30.84375 36.433594 31.695312 36.480469 C 32.121094 36.503906 32.46875 36.503906 32.730469 36.5 C 32.992188 36.492188 33.21875 36.480469 33.175781 36.480469 C 33.65625 36.480469 34.023438 36.335938 34.472656 36.101562 C 34.917969 35.871094 35.398438 35.53125 35.847656 35.0625 C 36.746094 34.125 37.492188 32.636719 37.40625 30.671875 C 37.367188 29.738281 36.847656 28.90625 36.078125 28.414062 C 35.484375 28.035156 34.566406 27.445312 33.363281 26.675781 C 31.96875 25.785156 30.1875 25.722656 28.734375 26.519531 L 28.816406 26.480469 L 27.683594 26.964844 L 27.601562 27.023438 C 27.328125 27.214844 26.988281 27.25 26.675781 27.121094 C 25.8125 26.757812 24.460938 26.046875 23.207031 24.792969 C 21.953125 23.539062 21.242188 22.1875 20.878906 21.324219 C 20.75 21.011719 20.785156 20.671875 20.976562 20.398438 L 21.035156 20.316406 L 21.519531 19.183594 L 21.480469 19.265625 C 22.277344 17.8125 22.214844 16.03125 21.324219 14.636719 C 20.554688 13.433594 19.964844 12.515625 19.585938 11.921875 C 19.09375 11.152344 18.261719 10.632812 17.328125 10.59375 Z M 17.246094 12.511719 C 17.515625 12.523438 17.792969 12.679688 17.96875 12.957031 C 18.347656 13.550781 18.9375 14.472656 19.707031 15.671875 C 20.214844 16.46875 20.25 17.515625 19.796875 18.34375 L 19.773438 18.386719 L 19.3125 19.46875 L 19.40625 19.292969 C 18.839844 20.101562 18.726562 21.152344 19.105469 22.0625 C 19.539062 23.097656 20.367188 24.667969 21.847656 26.152344 C 23.332031 27.632812 24.902344 28.460938 25.9375 28.894531 C 26.847656 29.273438 27.898438 29.160156 28.707031 28.59375 L 28.53125 28.6875 L 29.613281 28.226562 L 29.65625 28.203125 C 30.484375 27.75 31.53125 27.785156 32.328125 28.296875 L 32.328125 28.292969 C 33.527344 29.0625 34.449219 29.652344 35.042969 30.03125 C 35.320312 30.207031 35.476562 30.484375 35.488281 30.753906 C 35.550781 32.214844 35.042969 33.125 34.460938 33.738281 C 34.167969 34.042969 33.851562 34.265625 33.589844 34.398438 C 33.328125 34.535156 33.078125 34.5625 33.175781 34.5625 C 33 34.5625 32.90625 34.574219 32.683594 34.578125 C 32.464844 34.585938 32.167969 34.585938 31.804688 34.5625 C 31.074219 34.523438 30.066406 34.398438 28.851562 34.058594 C 26.425781 33.375 23.171875 31.84375 19.664062 28.335938 C 16.15625 24.828125 14.621094 21.574219 13.941406 19.148438 C 13.601562 17.933594 13.476562 16.925781 13.4375 16.195312 C 13.414062 15.832031 13.414062 15.535156 13.421875 15.316406 C 13.425781 15.09375 13.4375 15 13.4375 14.824219 C 13.4375 14.921875 13.464844 14.671875 13.601562 14.410156 C 13.734375 14.148438 13.957031 13.832031 14.261719 13.539062 C 14.875 12.957031 15.785156 12.449219 17.246094 12.511719 Z M 17.246094 12.511719 "/>
</g>
</svg>
