<?xml version="1.0" encoding="utf-8"?>
<!-- Generator: Adobe Illustrator 25.2.1, SVG Export Plug-In . SVG Version: 6.00 Build 0)  -->
<svg version="1.1" id="Layer_1" xmlns="http://www.w3.org/2000/svg" xmlns:xlink="http://www.w3.org/1999/xlink" x="0px" y="0px"
	 viewBox="0 0 469.3 469.3" style="enable-background:new 0 0 469.3 469.3;" xml:space="preserve">
<style type="text/css">
	.st0{fill:#5C6BBF;}
	.st1{fill:#FDFDFE;}
</style>
<g>
	<path class="st0" d="M327.1,377.1c1,3,0.7,4-2.8,4c-74.1-0.1-148.1-0.2-222.2,0c-21.7,0.1-43.4-14.9-42.8-43
		c0.5-27,0.1-54.1,0.1-81.2c0-57.5,0-114.9,0-172.4c0-19,10.8-33.9,28.7-39.8c2.1-0.7,8.8-2,16.3-2c93,0,168.7,0,261.8,0
		c5,0,8.4,0.5,9,0.6c20.5,3.3,35.5,20.8,35.5,41.4c0,112.2,0,224.4,0,336.6c0,1.1,0,2.2,0,4.1c-30.4-26-61.6-52.5-92.1-78.6
		L327.1,377.1z M158.9,157.5c-0.2-0.3-0.5-0.5-0.7-0.8c13.9-10.8,30.2-16.5,47-21.1c-1.4-3-3.8-2.2-5.8-2
		c-18.4,1.6-35,8.3-50.2,18.7c-1.4,0.9-2.5,2-3.2,3.5c-17.1,33.6-27.1,69-28,106.8c-0.1,2.4,0.5,4.3,2.1,6.1
		c14.9,17.8,34.7,24.7,57.1,25.8c0.8,0,1.5-0.1,2-0.7c4-5,8-10,12.1-15c-20.3-9-28.4-14.2-32.9-21.3c4.7,1.9,9.2,3.9,13.8,5.6
		c19.4,7.4,39.2,13.2,60.1,14.4c26.3,1.6,50.6-5,73.4-17.9c1.4-0.8,2.7-2.1,4.8-2.2c-0.1,0.6-0.1,1.1-0.3,1.3c-0.9,1-1.9,2-2.9,2.9
		c-7.7,6.8-16.5,11.5-26.3,14.6c-2.5,0.8-3.4,1.5-1.3,3.9c2.9,3.3,5.6,6.7,8.2,10.2c1.7,2.4,3.7,3.2,6.6,3c21.7-1.6,40.7-9.2,56-25
		c1.9-1.9,2.8-3.7,2.7-6.5c-1.1-37.5-11.2-72.7-28.3-106c-0.6-1.1-1.2-2.1-2.3-2.9c-15.5-10.8-32.5-17.8-51.5-19.2
		c-2.4-0.2-4.2,0.3-5.2,2.8c4,1.4,8,2.6,11.9,4.1c4,1.5,7.9,3.1,11.7,4.8c3.8,1.8,7.6,3.7,11.3,5.8c3.5,2,7.1,4.1,10.6,7
		c-2.1,0.5-3.1-0.5-4.2-0.9c-33.7-14.6-68.6-19.4-104.9-13.1C187.4,146.9,173,151.6,158.9,157.5z"/>
	<path class="st1" d="M158.9,157.5c14.1-5.8,28.5-10.5,43.5-13.1c36.3-6.2,71.2-1.4,104.9,13.1c1.1,0.5,2.1,1.4,4.2,0.9
		c-3.5-3-7.1-5-10.6-7c-3.7-2.1-7.5-4-11.3-5.8c-3.8-1.8-7.8-3.3-11.7-4.8c-3.9-1.5-7.9-2.7-11.9-4.1c1.1-2.5,2.9-3,5.2-2.8
		c19.1,1.3,36,8.3,51.5,19.2c1.1,0.8,1.7,1.8,2.3,2.9c17.1,33.3,27.1,68.4,28.3,106c0.1,2.8-0.8,4.6-2.7,6.5
		c-15.4,15.8-34.3,23.4-56,25c-2.9,0.2-4.9-0.6-6.6-3c-2.6-3.5-5.3-6.9-8.2-10.2c-2.1-2.4-1.1-3.1,1.3-3.9
		c9.7-3.1,18.6-7.8,26.3-14.6c1-0.9,2-1.9,2.9-2.9c0.2-0.2,0.2-0.6,0.3-1.3c-2,0.1-3.3,1.3-4.8,2.2c-22.8,12.9-47.1,19.5-73.4,17.9
		c-20.9-1.2-40.7-7-60.1-14.4c-4.6-1.8-9.1-3.7-13.8-5.6c4.5,7.1,12.5,12.3,32.9,21.3c-4.1,5.1-8.1,10-12.1,15
		c-0.5,0.7-1.3,0.8-2,0.7c-22.4-1.1-42.2-8-57.1-25.8c-1.5-1.8-2.1-3.7-2.1-6.1c0.9-37.8,10.9-73.2,28-106.8
		c0.8-1.5,1.9-2.6,3.2-3.5c15.2-10.4,31.8-17.1,50.2-18.7c2-0.2,4.3-1,5.8,2c-16.8,4.6-33.1,10.3-47,21.1c-0.5,0.3-0.9,0.6-1.4,1
		C157.6,158.2,158.3,158,158.9,157.5z M218.7,225.1c-0.1-11.7-9.2-21.2-20.3-21.2c-11.6,0.1-20.9,9.7-20.9,21.5
		c0.1,11.7,9.4,21.2,20.8,21.1C209.8,246.4,218.7,237,218.7,225.1z M251.4,225.2c0,11.8,9.1,21.3,20.5,21.3
		c11.3,0,20.6-9.5,20.6-21.2c0-11.5-9.2-21.3-20.2-21.4C260.7,203.8,251.4,213.3,251.4,225.2z"/>
	<path class="st0" d="M218.7,225.1c0.1,11.9-8.9,21.3-20.3,21.4c-11.3,0.1-20.7-9.4-20.8-21.1c-0.1-11.8,9.3-21.4,20.9-21.5
		C209.5,203.9,218.6,213.4,218.7,225.1z"/>
	<path class="st0" d="M251.4,225.2c0-11.9,9.3-21.4,20.9-21.3c11,0.1,20.2,9.8,20.2,21.4c0,11.7-9.3,21.2-20.6,21.2
		C260.4,246.5,251.3,237,251.4,225.2z"/>
	<path class="st0" d="M158.9,157.5c-0.7,0.6-1.4,0.7-2.1,0.2c0.5-0.3,0.9-0.6,1.4-1C158.4,156.9,158.7,157.2,158.9,157.5z"/>
</g>
</svg>
