<?xml version="1.0" encoding="utf-8"?>
<!-- Generator: Adobe Illustrator 25.2.1, SVG Export Plug-In . SVG Version: 6.00 Build 0)  -->
<svg version="1.1" id="Capa_1" xmlns="http://www.w3.org/2000/svg" xmlns:xlink="http://www.w3.org/1999/xlink" x="0px" y="0px"
	 viewBox="0 0 112.2 112.2" style="enable-background:new 0 0 112.2 112.2;" xml:space="preserve">
<style type="text/css">
	.st0{fill:#E30613;}
	.st1{fill:#FFFFFF;}
</style>
<g>
	<path class="st0" d="M57.7,112.2c-1.4,0-2.8,0-4.1,0c0-0.1-0.1-0.1-0.2-0.1c-2.2-0.1-4.5-0.4-6.7-0.7c-2.9-0.5-5.8-1.2-8.6-2.2
		c-8.5-2.9-15.9-7.6-22.2-14C9.9,89,5.5,81.8,2.8,73.6c-0.8-2.6-1.5-5.2-2-7.9c-0.2-1.3-0.4-2.6-0.5-4c-0.1-0.8-0.2-1.6-0.2-2.4
		c0-0.9-0.2-1.8-0.1-2.7c0-0.5,0-1.1,0-1.6c0-0.5,0.1-1,0.1-1.5c0-1.2,0.1-2.3,0.3-3.4c0.2-1.8,0.5-3.6,0.8-5.5
		c1-4.9,2.6-9.5,4.9-13.9c2.8-5.6,6.5-10.5,10.9-14.9c6.1-5.9,13.2-10.3,21.3-13C43.1,1.3,48,0.4,53,0.1c2.7-0.2,5.5-0.1,8.2,0.1
		c2,0.2,4,0.5,6,0.9c5,1,9.9,2.7,14.4,5c8.9,4.5,16,11,21.5,19.3c3.5,5.4,6,11.2,7.6,17.4c0.4,1.7,0.7,3.4,1,5.1
		c0.2,1.3,0.3,2.6,0.4,3.9c0.1,0.9,0.1,1.8,0.1,2.7c0,0.1,0,0.2,0,0.3c0,0.9,0,1.7,0,2.6c-0.1,0.1,0,0.2,0,0.3c0,1.3-0.1,2.7-0.2,4
		c-0.2,2-0.5,4-0.9,6c-1,4.7-2.6,9.2-4.7,13.6c-2.8,5.6-6.5,10.6-11,15c-4.7,4.6-10.1,8.3-16.2,11c-3.8,1.7-7.8,3-11.9,3.8
		c-1.5,0.3-3,0.5-4.4,0.7c-0.9,0.1-1.8,0.2-2.7,0.3C59.3,112.1,58.5,112.1,57.7,112.2z M56.1,84.2c1.8,0,3.5,0,5.2,0
		c3-0.1,6-0.1,9-0.2c2.3-0.1,4.6-0.2,6.8-0.3c0.9-0.1,1.8-0.1,2.8-0.2c1.5-0.1,3-0.2,4.5-0.4c1.2-0.1,2.4-0.3,3.6-0.8
		c2.8-1,4.9-2.8,6.1-5.5c0.6-1.3,0.9-2.6,1.1-3.9c0.3-2.3,0.6-4.6,0.7-6.8c0.2-2.1,0.3-4.1,0.3-6.2c0.1-2.6,0.1-5.2,0-7.7
		c0-2-0.1-3.9-0.3-5.9c-0.1-1-0.2-2-0.3-3c-0.1-1.3-0.3-2.7-0.6-4c-0.2-1-0.4-2-0.7-3c-0.9-2.4-2.4-4.2-4.6-5.4
		c-1.3-0.7-2.7-1.1-4.2-1.3c-2-0.3-4-0.5-5.9-0.6c-1.7-0.1-3.4-0.2-5.1-0.3c-2.1-0.1-4.3-0.2-6.4-0.2c-3-0.1-6.1-0.1-9.1-0.2
		c-1.6,0-3.3,0-4.9,0c-1.8,0-3.6,0-5.5,0.1c-2.3,0-4.5,0.1-6.8,0.2c-1.5,0-3,0.1-4.4,0.2c-1.5,0.1-3,0.1-4.6,0.3
		c-1,0.1-1.9,0.2-2.9,0.2c-1.1,0.1-2.2,0.2-3.2,0.4c-1.3,0.2-2.6,0.5-3.8,1.1c-2.5,1.3-4.2,3.4-5,6.1c-0.4,1.4-0.6,2.8-0.8,4.2
		c-0.2,1.5-0.4,2.9-0.5,4.4c-0.2,2-0.2,4-0.3,6c-0.1,1.6-0.1,3.2-0.1,4.9c0,1.7,0,3.5,0.1,5.2c0,1.5,0.1,3.1,0.2,4.6
		c0.1,1.1,0.2,2.2,0.3,3.3c0.1,1.2,0.3,2.5,0.5,3.7c0.2,1,0.3,2,0.6,2.9c0.6,1.9,1.6,3.5,3.2,4.8c1.4,1.1,3,1.8,4.8,2.2
		c1.5,0.3,3.1,0.5,4.6,0.6c1.6,0.1,3.2,0.2,4.8,0.3c2.1,0.1,4.1,0.2,6.2,0.3c2.1,0.1,4.2,0.1,6.3,0.2C50.6,84.1,53.4,84.2,56.1,84.2
		z"/>
	<path class="st1" d="M56.1,84.2c-2.7,0-5.5,0-8.3-0.1c-2.1,0-4.2-0.1-6.3-0.2c-2.1-0.1-4.1-0.2-6.2-0.3c-1.6-0.1-3.2-0.2-4.8-0.3
		c-1.5-0.1-3.1-0.3-4.6-0.6c-1.8-0.4-3.4-1-4.8-2.2c-1.6-1.3-2.6-2.9-3.2-4.8c-0.3-1-0.5-1.9-0.6-2.9c-0.2-1.2-0.3-2.5-0.5-3.7
		c-0.1-1.1-0.2-2.2-0.3-3.3c-0.1-1.5-0.2-3.1-0.2-4.6c-0.1-1.7-0.1-3.5-0.1-5.2c0-1.6,0-3.2,0.1-4.9c0.1-2,0.2-4,0.3-6
		c0.1-1.5,0.3-2.9,0.5-4.4c0.2-1.4,0.4-2.8,0.8-4.2c0.8-2.7,2.5-4.7,5-6.1c1.2-0.6,2.5-1,3.8-1.1c1.1-0.1,2.2-0.3,3.2-0.4
		c1-0.1,1.9-0.2,2.9-0.2c1.5-0.1,3-0.2,4.6-0.3c1.5-0.1,3-0.1,4.4-0.2c2.3-0.1,4.5-0.1,6.8-0.2c1.8,0,3.6,0,5.5-0.1
		c1.6,0,3.3,0,4.9,0c3,0,6.1,0.1,9.1,0.2c2.1,0.1,4.3,0.1,6.4,0.2c1.7,0.1,3.4,0.2,5.1,0.3c2,0.1,4,0.3,5.9,0.6
		c1.5,0.2,2.9,0.6,4.2,1.3c2.3,1.2,3.8,3,4.6,5.4c0.4,1,0.6,2,0.7,3c0.2,1.3,0.4,2.7,0.6,4c0.1,1,0.2,2,0.3,3c0.2,2,0.2,3.9,0.3,5.9
		c0,2.6,0,5.2,0,7.7c-0.1,2.1-0.2,4.2-0.3,6.2c-0.2,2.3-0.4,4.6-0.7,6.8c-0.2,1.4-0.5,2.7-1.1,3.9c-1.2,2.7-3.3,4.5-6.1,5.5
		c-1.2,0.4-2.4,0.6-3.6,0.8c-1.5,0.1-3,0.3-4.5,0.4c-0.9,0.1-1.8,0.1-2.8,0.2c-2.3,0.1-4.6,0.2-6.8,0.3c-3,0.1-6,0.1-9,0.2
		C59.6,84.2,57.9,84.2,56.1,84.2z M48.2,68.1c6.9-4,13.9-8,20.8-12c-7-4-13.9-8-20.8-12C48.2,52.2,48.2,60.1,48.2,68.1z"/>
	<path class="st0" d="M48.2,68.1c0-8,0-15.9,0-23.9c6.9,4,13.8,8,20.8,12C62.1,60.2,55.2,64.1,48.2,68.1z"/>
</g>
</svg>
