<svg xmlns="http://www.w3.org/2000/svg" height="934pt" version="1.1" viewBox="0 0 934.99852 934" width="934pt">
<g id="surface1">
<path d="M 467.5 561.46875 C 587.984375 561.46875 685.664062 463.792969 685.664062 343.304688 C 685.664062 222.820312 587.984375 125.144531 467.5 125.144531 C 347.003906 125.144531 249.328125 222.820312 249.328125 343.304688 C 249.460938 463.746094 347.058594 561.34375 467.5 561.46875 Z M 467.5 156.308594 C 570.769531 156.308594 654.5 240.03125 654.5 343.304688 C 654.5 446.585938 570.769531 530.304688 467.5 530.304688 C 364.222656 530.304688 280.5 446.585938 280.5 343.304688 C 280.613281 240.078125 364.261719 156.417969 467.5 156.308594 Z M 467.5 156.308594 " style=" stroke:none;fill-rule:nonzero;fill:rgb(0%,0%,0%);fill-opacity:1;" />
<path d="M 900.855469 653.128906 C 879.613281 639.613281 852.917969 637.988281 830.191406 648.816406 L 650.015625 734.167969 C 658.109375 712.621094 655.117188 688.492188 642.015625 669.578125 C 628.917969 650.660156 607.378906 639.390625 584.375 639.390625 L 395.886719 639.390625 C 325.992188 573.972656 221.929688 560.972656 138.078125 607.179688 L 136.214844 608.222656 L 0 608.222656 L 0 639.390625 L 124.667969 639.390625 L 124.667969 904.304688 L 0 904.304688 L 0 935.46875 L 547.984375 935.46875 C 600.078125 935.453125 651.242188 921.714844 696.332031 895.625 L 898.371094 778.660156 C 920.589844 765.796875 934.472656 742.253906 934.984375 716.59375 C 935.488281 690.925781 922.539062 666.855469 900.855469 653.128906 Z M 882.761719 751.679688 L 680.71875 868.644531 C 640.378906 891.992188 594.597656 904.289062 547.984375 904.304688 L 155.835938 904.304688 L 155.835938 633 C 229.292969 594.019531 319.5625 607.386719 378.558594 665.992188 C 381.488281 668.910156 385.449219 670.554688 389.578125 670.554688 L 584.375 670.554688 C 605.890625 670.554688 623.324219 687.996094 623.324219 709.515625 C 623.324219 731.019531 605.890625 748.46875 584.375 748.46875 L 389.578125 748.46875 C 380.976562 748.46875 373.996094 755.445312 373.996094 764.050781 C 373.996094 772.664062 380.976562 779.640625 389.578125 779.640625 L 623.324219 779.640625 C 625.640625 779.613281 627.914062 779.078125 629.996094 778.078125 L 843.488281 676.925781 C 863.953125 667.199219 888.449219 675.363281 898.988281 695.429688 C 909.515625 715.488281 902.332031 740.289062 882.710938 751.617188 Z M 882.761719 751.679688 " style=" stroke:none;fill-rule:nonzero;fill:rgb(0%,0%,0%);fill-opacity:1;" />
<path d="M 342.828125 343.304688 C 342.902344 274.488281 398.675781 218.71875 467.5 218.644531 L 467.5 187.476562 C 381.46875 187.566406 311.757812 257.28125 311.664062 343.304688 Z M 342.828125 343.304688 " style=" stroke:none;fill-rule:nonzero;fill:rgb(0%,0%,0%);fill-opacity:1;" />
<path d="M 467.5 499.140625 C 553.523438 499.042969 623.238281 429.328125 623.324219 343.304688 L 592.160156 343.304688 C 592.085938 412.121094 536.3125 467.894531 467.5 467.972656 Z M 467.5 499.140625 " style=" stroke:none;fill-rule:nonzero;fill:rgb(0%,0%,0%);fill-opacity:1;" />
<path d="M 153.273438 93.761719 C 178.667969 98 198.566406 117.894531 202.800781 143.296875 C 204.066406 150.792969 210.566406 156.277344 218.164062 156.277344 C 225.769531 156.277344 232.265625 150.792969 233.523438 143.296875 C 237.769531 117.894531 257.667969 98 283.054688 93.761719 C 290.546875 92.488281 296.035156 85.996094 296.035156 78.394531 C 296.035156 70.785156 290.546875 64.292969 283.054688 63.023438 C 257.667969 58.785156 237.769531 38.878906 233.523438 13.484375 C 232.265625 5.996094 225.769531 0.5 218.164062 0.5 C 210.566406 0.5 204.066406 5.996094 202.800781 13.484375 C 198.566406 38.878906 178.667969 58.785156 153.273438 63.023438 C 145.777344 64.292969 140.292969 70.785156 140.292969 78.394531 C 140.292969 85.996094 145.777344 92.488281 153.273438 93.761719 Z M 218.164062 56.136719 C 224.246094 64.785156 231.773438 72.3125 240.417969 78.394531 C 231.773438 84.460938 224.246094 92 218.164062 100.644531 C 212.085938 92 204.558594 84.460938 195.90625 78.394531 C 204.558594 72.3125 212.085938 64.785156 218.164062 56.136719 Z M 218.164062 56.136719 " style=" stroke:none;fill-rule:nonzero;fill:rgb(0%,0%,0%);fill-opacity:1;" />
<path d="M 714.269531 483.339844 C 739.664062 487.578125 759.558594 507.476562 763.792969 532.875 C 765.0625 540.371094 771.558594 545.855469 779.160156 545.855469 C 786.765625 545.855469 793.261719 540.371094 794.523438 532.875 C 798.765625 507.476562 818.660156 487.578125 844.050781 483.339844 C 851.542969 482.0625 857.03125 475.574219 857.03125 467.972656 C 857.03125 460.363281 851.542969 453.871094 844.050781 452.605469 C 818.660156 448.363281 798.765625 428.457031 794.523438 403.074219 C 793.261719 395.578125 786.765625 390.078125 779.160156 390.078125 C 771.558594 390.078125 765.0625 395.578125 763.792969 403.074219 C 759.558594 428.457031 739.664062 448.363281 714.269531 452.605469 C 706.78125 453.871094 701.289062 460.363281 701.289062 467.972656 C 701.289062 475.574219 706.78125 482.0625 714.269531 483.339844 Z M 779.160156 445.714844 C 785.242188 454.363281 792.769531 461.890625 801.414062 467.972656 C 792.769531 474.042969 785.242188 481.578125 779.160156 490.222656 C 773.082031 481.578125 765.554688 474.042969 756.902344 467.972656 C 765.554688 461.890625 773.082031 454.363281 779.160156 445.714844 Z M 779.160156 445.714844 " style=" stroke:none;fill-rule:nonzero;fill:rgb(0%,0%,0%);fill-opacity:1;" />
<path d="M 451.910156 265.394531 C 426.097656 265.394531 405.164062 286.324219 405.164062 312.140625 C 405.164062 337.957031 426.097656 358.890625 451.910156 358.890625 L 483.078125 358.890625 C 491.6875 358.890625 498.664062 365.863281 498.664062 374.472656 C 498.664062 383.085938 491.6875 390.054688 483.078125 390.054688 L 420.746094 390.054688 L 420.746094 421.222656 L 451.910156 421.222656 L 451.910156 436.808594 L 483.078125 436.808594 L 483.078125 421.222656 C 508.898438 421.222656 529.828125 400.292969 529.828125 374.472656 C 529.828125 348.65625 508.898438 327.722656 483.078125 327.722656 L 451.910156 327.722656 C 443.304688 327.722656 436.328125 320.746094 436.328125 312.140625 C 436.328125 303.535156 443.304688 296.558594 451.910156 296.558594 L 514.25 296.558594 L 514.25 265.394531 L 483.078125 265.394531 L 483.078125 249.808594 L 451.910156 249.808594 Z M 451.910156 265.394531 " style=" stroke:none;fill-rule:nonzero;fill:rgb(0%,0%,0%);fill-opacity:1;" />
</g>
</svg>